Coordinates
version=1
nRows=29
nColumns=24
inDegrees=yes

Units are S.I. units (second, meters, Newtons, ...)
Angles are in degrees.

endheader
time	pelvis_tilt	pelvis_list	pelvis_rotation	pelvis_tx	pelvis_ty	pelvis_tz	hip_flexion_r	hip_adduction_r	hip_rotation_r	knee_angle_r	ankle_angle_r	subtalar_angle_r	mtp_angle_r	hip_flexion_l	hip_adduction_l	hip_rotation_l	knee_angle_l	ankle_angle_l	subtalar_angle_l	mtp_angle_l	lumbar_extension	lumbar_bending	lumbar_rotation
      2.04000000	     -5.58751549	     -1.43893823	      2.07732445	      0.14563446	      1.23884005	     -0.83430269	     13.56136151	      7.83042043	      1.34891995	    -11.51828752	      2.50049672	     -5.17712653	      3.61480613	     30.91865265	      4.48494420	     -0.17876393	    -61.29240914	     -6.08883074	     -2.81992031	     23.72951922	     -5.70860693	      3.88589049	      3.74767968
      2.04500000	     -5.61546723	     -1.32434566	      1.97810671	      0.15077342	      1.23928389	     -0.83372926	     13.05777722	      7.79097507	      1.56614470	    -11.31728391	      2.75134827	     -5.19436838	      3.53205201	     31.32663658	      4.63509716	     -0.23523774	    -60.27637312	     -5.47622094	     -2.76436695	     23.50170223	     -5.70383114	      3.71447135	      4.00009910
      2.05000000	     -5.67503183	     -1.22663924	      1.90474700	      0.15590986	      1.23965463	     -0.83322386	     12.58924425	      7.75521080	      1.77748910	    -11.11599116	      2.97298047	     -5.22098520	      3.45887922	     31.74850513	      4.79850354	     -0.22136916	    -59.19072072	     -4.87143520	     -2.78824344	     23.29364585	     -5.67092225	      3.57268657	      4.15276646
      2.05500000	     -5.69129424	     -1.14676509	      1.83734139	      0.16111769	      1.24002671	     -0.83266698	     12.02146092	      7.74670030	      1.98734432	    -10.82901789	      3.12401153	     -5.33342792	      3.23772784	     32.09329778	      4.90954736	     -0.22055984	    -58.06286198	     -4.23337607	     -2.54122997	     22.58697111	     -5.66455950	      3.42665423	      4.37163750
      2.06000000	     -5.73108534	     -1.05333258	      1.75588462	      0.16632258	      1.24034612	     -0.83213267	     11.51270528	      7.71687341	      2.18705054	    -10.60145343	      3.35479599	     -5.37220476	      3.16966762	     32.42729525	      5.03342518	     -0.22343394	    -56.82520449	     -3.74030713	     -2.67417796	     22.34962604	     -5.63625499	      3.27353480	      4.57220405
      2.06500000	     -5.75153856	     -0.98384902	      1.71349969	      0.17154254	      1.24064619	     -0.83166892	     10.94338051	      7.70155220	      2.38246600	    -10.30491162	      3.48460363	     -5.46725811	      2.99962546	     32.71534183	      5.16335447	     -0.14476087	    -55.53821974	     -3.26568275	     -2.75885461	     21.73173022	     -5.62814434	      3.15020566	      4.71593532
      2.07000000	     -5.78724060	     -0.91458169	      1.64514905	      0.17677349	      1.24086952	     -0.83117723	     10.42601718	      7.69071207	      2.56688561	    -10.07375980	      3.72208368	     -5.53032047	      2.92310333	     32.99246450	      5.26175697	     -0.09684372	    -54.18091978	     -2.82786386	     -2.99040365	     21.43246885	     -5.59844281	      3.02064331	      4.92673843
      2.07500000	     -5.80797352	     -0.86071621	      1.61709472	      0.18199848	      1.24108309	     -0.83078169	      9.86219645	      7.68094791	      2.73463594	     -9.78557197	      3.85068918	     -5.60575020	      2.78681202	     33.22280773	      5.38634540	      0.04367693	    -52.75957146	     -2.48103937	     -3.29193911	     20.84818163	     -5.59136634	      2.91992191	      5.04684088
      2.08000000	     -5.83408622	     -0.80871946	      1.57104806	      0.18725570	      1.24123321	     -0.83035876	      9.32056741	      7.67747457	      2.89139547	     -9.53164326	      4.06167850	     -5.68332777	      2.68669675	     33.42833069	      5.47592392	      0.15205829	    -51.27892577	     -2.12765787	     -3.65257682	     20.40686324	     -5.56896097	      2.81456832	      5.21956574
      2.08500000	     -5.86207069	     -0.77129400	      1.54282518	      0.19251089	      1.24133171	     -0.82999982	      8.77918014	      7.68236963	      3.02343938	     -9.27260419	      4.24896236	     -5.76374758	      2.58156036	     33.60943119	      5.56546351	      0.30690334	    -49.74291016	     -1.82648517	     -4.08613064	     19.92705391	     -5.54875691	      2.73071466	      5.34621519
      2.09000000	     -5.89563830	     -0.73871793	      1.51860300	      0.19776952	      1.24138642	     -0.82967362	      8.24986007	      7.68847565	      3.14890659	     -9.02476658	      4.43018775	     -5.83601154	      2.47700367	     33.76162014	      5.65210374	      0.48949456	    -48.14286973	     -1.55970936	     -4.58637864	     19.39949066	     -5.52874618	      2.66059283	      5.44537068
      2.09500000	     -5.93672137	     -0.71679404	      1.49757277	      0.20302271	      1.24138126	     -0.82939165	      7.73783360	      7.70166088	      3.26191042	     -8.79087122	      4.62361227	     -5.90024042	      2.38384844	     33.89162550	      5.72764927	      0.70029538	    -46.48743322	     -1.31593321	     -5.10119798	     18.88856340	     -5.49867439	      2.60460334	      5.54251977
      2.10000000	     -5.97991209	     -0.69812825	      1.48282602	      0.20829089	      1.24133015	     -0.82914086	      7.22923398	      7.71465242	      3.35371762	     -8.55976334	      4.81698910	     -5.95944332	      2.29265638	     33.98493286	      5.79892812	      0.93176090	    -44.76998288	     -1.10020950	     -5.66555302	     18.34543843	     -5.46929585	      2.55678191	      5.60857838
      2.10500000	     -6.02640326	     -0.68918630	      1.46917154	      0.21353279	      1.24122253	     -0.82893244	      6.73848543	      7.73591235	      3.43976832	     -8.35027982	      5.02146772	     -6.00782223	      2.20737428	     34.04852655	      5.86014587	      1.19225241	    -42.99712673	     -0.90084212	     -6.22921126	     17.80595480	     -5.44220243	      2.52887719	      5.66494787
      2.11000000	     -6.08608234	     -0.68247700	      1.45837041	      0.21880678	      1.24106723	     -0.82876528	      6.26236084	      7.75468242	      3.50694315	     -8.14376970	      5.22865952	     -6.04599473	      2.13381327	     34.07913422	      5.91753326	      1.47647622	    -41.15789438	     -0.72552389	     -6.80814290	     17.24592035	     -5.39923620	      2.50714887	      5.70519341
      2.11500000	     -6.14169425	     -0.68541040	      1.44638043	      0.22403429	      1.24084636	     -0.82862777	      5.80496065	      7.78386655	      3.57092749	     -7.97385618	      5.46275312	     -6.09007849	      2.06848767	     34.06764332	      5.95925442	      1.78438746	    -39.26496768	     -0.53470934	     -7.35441571	     16.71096919	     -5.37349860	      2.50357841	      5.72436300
      2.12000000	     -6.21274159	     -0.69231078	      1.43771210	      0.22928795	      1.24058002	     -0.82852552	      5.36238371	      7.81265256	      3.62254629	     -7.80036774	      5.68668616	     -6.11647723	      2.01224050	     34.02239509	      5.99627347	      2.12452708	    -37.30798709	     -0.37930034	     -7.90395314	     16.14680137	     -5.32890321	      2.50828750	      5.73055989
      2.12500000	     -6.32192543	     -0.72143981	      1.45280598	      0.23457265	      1.24020951	     -0.82852119	      4.96414825	      7.85416693	      3.60140526	     -7.63118195	      5.92158224	     -6.07550241	      1.97075166	     33.98650590	      6.03383694	      2.53070177	    -35.32324336	     -0.25829095	     -8.51341138	     15.44306135	     -5.23522288	      2.54551024	      5.70613250
      2.13000000	     -6.38426036	     -0.73304025	      1.42088560	      0.23978472	      1.23985775	     -0.82842036	      4.54204843	      7.89196670	      3.68972548	     -7.50847709	      6.17308077	     -6.11917081	      1.92987428	     33.84336735	      6.02561746	      2.86934475	    -33.25771126	     -0.08071255	     -8.89226296	     14.96977425	     -5.21440892	      2.56126379	      5.70116051
      2.13500000	     -6.48732908	     -0.76904543	      1.43000557	      0.24508276	      1.23940845	     -0.82844088	      4.13044306	      7.93950018	      3.68580417	     -7.32586824	      6.38590172	     -6.08518920	      1.90191482	     33.71111166	      6.03084147	      3.29305058	    -31.17128548	      0.01730385	     -9.42156995	     14.30290762	     -5.13043199	      2.60943154	      5.66012265
      2.14000000	     -6.59460238	     -0.81050666	      1.42089980	      0.25032736	      1.23890156	     -0.82843753	      3.76288852	      7.99941775	      3.70990167	     -7.21202515	      6.63825307	     -6.07863962	      1.88009066	     33.55166168	      6.00363501	      3.70963573	    -29.05198650	      0.13670972	     -9.82451837	     13.69412063	     -5.05622456	      2.66367469	      5.61283479
      2.14500000	     -6.70176377	     -0.86794207	      1.41277110	      0.25556210	      1.23833582	     -0.82845695	      3.40185585	      8.07562770	      3.73409896	     -7.10941552	      6.88703149	     -6.07047170	      1.86292861	     33.36632620	      5.95268009	      4.14013285	    -26.91788125	      0.23499587	    -10.18195062	     13.08133723	     -4.98508060	      2.73542228	      5.54893562
      2.15000000	     -6.83085810	     -0.95030938	      1.41646211	      0.26076228	      1.23767331	     -0.82853849	      3.09065978	      8.17545214	      3.72291765	     -7.04925186	      7.15981949	     -6.04478066	      1.85374019	     33.19105452	      5.88679488	      4.63242348	    -24.78981343	      0.28734515	    -10.53557937	     12.39689058	     -4.89812806	      2.84412280	      5.46713970
      2.15500000	     -6.94453371	     -1.02260859	      1.38815324	      0.26604324	      1.23700706	     -0.82852994	      2.73377022	      8.27192466	      3.78389519	     -6.94627710	      7.38902677	     -6.05530824	      1.83703590	     32.96225706	      5.77823826	      5.00334429	    -22.64223997	      0.36841727	    -10.73513822	     11.88450925	     -4.81075668	      2.92527952	      5.40616654
      2.16000000	     -7.08544407	     -1.13276665	      1.37991925	      0.27126546	      1.23624052	     -0.82859514	      2.44570016	      8.40612147	      3.79908688	     -6.90808714	      7.63380309	     -6.05495411	      1.83971094	     32.76331904	      5.65499047	      5.47542974	    -20.52863185	      0.34617007	    -10.98672559	     11.25377790	     -4.70876983	      3.05574996	      5.30731553
      2.16500000	     -7.19995824	     -1.23507944	      1.32908342	      0.27653846	      1.23546227	     -0.82856031	      2.12254358	      8.54206359	      3.89091388	     -6.86857592	      7.86382265	     -6.10041681	      1.82624994	     32.52359253	      5.48412851	      5.78864065	    -18.44486818	      0.37468165	    -11.02674980	     10.84891941	     -4.62528622	      3.16281230	      5.23299345
      2.17000000	     -7.32904164	     -1.36676501	      1.29743967	      0.28181767	      1.23460788	     -0.82857318	      1.81390980	      8.70653390	      3.96170876	     -6.82658430	      8.07371974	     -6.14414738	      1.82257983	     32.30902913	      5.30330175	      6.15593893	    -16.43577092	      0.33466303	    -11.08805192	     10.38445361	     -4.52511055	      3.29995406	      5.14797324
      2.17500000	     -7.47399070	     -1.51742514	      1.25950472	      0.28710876	      1.23369017	     -0.82859015	      1.53266568	      8.89204244	      4.04320222	     -6.80434002	      8.27925733	     -6.18652434	      1.83123318	     32.13535749	      5.10130228	      6.49542498	    -14.53918004	      0.27980017	    -11.08472743	      9.94051321	     -4.40032354	      3.45317491	      5.06935919
      2.18000000	     -7.62400829	     -1.68284812	      1.21738706	      0.29239478	      1.23273039	     -0.82860063	      1.26892890	      9.09512656	      4.13674343	     -6.80480307	      8.47507723	     -6.24076502	      1.84347788	     31.99693644	      4.88411649	      6.80263722	    -12.77477347	      0.23009562	    -10.98756996	      9.54770611	     -4.27250189	      3.61546313	      4.98664902
